<svg xmlns="http://www.w3.org/2000/svg" viewBox="0 0 472.3 512.06"><defs><style>.cls-1{fill:#feda00;}.cls-1,.cls-2,.cls-3,.cls-4,.cls-5{stroke:#000;stroke-miterlimit:10;stroke-width:0.25px;}.cls-2{fill:#0196f8;}.cls-3{fill:#64adfa;}.cls-4{fill:#0793f1;}.cls-5{fill:#feb500;}</style></defs><g id="Layer_2" data-name="Layer 2"><g id="Layer_1-2" data-name="Layer 1"><path class="cls-1" d="M383.25,282.42l6.85.06c6.77,2.71,9.11,7.79,9.06,14.95q-.3,46.6,0,93.22c0,7.21-2.44,12.18-9.12,15q-102.15,0-204.3-.09c-5.1,0-6.31,1.29-6.27,6.3.26,27.14.07,54.28.16,81.42,0,6.73.47,13.45-6.15,17.82a.51.51,0,0,0-.12.45,5.57,5.57,0,0,0,.8.43h-12c1.48-.55.48-1.2,0-1.68Q84,432.28,5.85,354.33c-7.68-7.65-7.63-13,.12-20.79q49.74-49.86,99.48-99.74c1.17-1.17,2.21-2.46,3.31-3.7,1.51-1.28,3.11-2.47,4.5-3.86q23-22.89,45.84-45.84c3.71-3.71,7.87-5.5,13.05-3.46,5.34,2.1,7.43,6.24,7.41,11.76,0,10.64-.06,21.28,0,31.92,0,3.12-.65,6.31.57,9.36-.19,15.79-.24,31.58-.66,47.36-.11,4.24,1.28,5.22,5.34,5.2,30.75-.14,61.51-.05,92.27,0,0,13.81,0,27.62,0,41.42,0,11.8,6,21.3,16.77,25.35,10.91,4.11,21,2.24,29.44-6.08,9.37-9.21,18.63-18.54,27.9-27.86q16-16.09,31.91-32.28A.92.92,0,0,0,383.25,282.42Z"/><path class="cls-2" d="M310.11.12c-1.41.76-.2,1.33.21,1.75Q387.57,79,464.85,156c.71.7,1.42,1.4,2.12,2.12,6.91,7.07,7,12.79,0,19.76q-38,38-75.93,76c-9.28,9.3-18.46,18.69-27.69,28-1.48,1.33-3,2.6-4.42,4q-23.1,23.06-46.18,46.16c-3.76,3.76-8.06,5.1-13.11,3s-7.24-6.09-7.37-11.33c0-2.15.21-4.29.32-6.44,1.49-1.31,3.06-2.56,4.46-4q70.5-70.45,141.06-140.86c3.62-3.6,3.57-5.39,0-9Q367.44,93.28,297,22.7c-1.4-1.4-3-2.6-4.51-3.9-1-6.87-.69-13.28,5.87-17.65.59-.39.11-.76-.29-1Z"/><path class="cls-3" d="M292.53,18.8c1.51,1.3,3.11,2.5,4.51,3.9q70.5,70.47,141.06,140.87c3.58,3.57,3.63,5.36,0,9q-70.68,70.28-141.06,140.86c-1.4,1.4-3,2.65-4.46,4q-.24-17.62-.48-35.22c.1-15.79.07-31.58.4-47.36.08-4.07-.89-5.3-5.14-5.27-30.76.18-61.52.08-92.28.06,0-13.32.07-26.64,0-40,0-13-5.92-22.8-16.93-26.87-11.56-4.28-21.75-1.7-30.54,7.19-18.37,18.6-36.94,37-55.41,55.49-1.28,1.29-2.79,2.42-3.4,4.25-9,0-18,0-27-.08-9.2-.09-13.55-4.36-13.56-13.44q-.06-48.21,0-96.42c0-8.53,4.3-12.89,12.79-13.28,1.49-.07,3,0,4.49,0q110.4,0,220.79.13c5.24,0,6.17-1.48,6.13-6.33C292.33,73.08,292.49,45.94,292.53,18.8Z"/><path class="cls-4" d="M88.85,229.66c.61-1.83,2.12-3,3.4-4.25,18.47-18.49,37-36.89,55.41-55.49,8.79-8.89,19-11.47,30.54-7.19,11,4.07,16.9,13.88,16.93,26.87,0,13.32,0,26.64,0,40l-14.92.42c-1.22-3-.54-6.24-.57-9.36-.1-10.64-.07-21.28,0-31.92,0-5.52-2.07-9.66-7.41-11.76-5.18-2-9.34-.25-13.05,3.46q-22.87,22.95-45.84,45.84c-1.39,1.39-3,2.58-4.5,3.86Z"/><path class="cls-5" d="M390,405.6c6.68-2.77,9.17-7.74,9.12-15q-.32-46.61,0-93.22c0-7.16-2.29-12.24-9.06-14.95,7.47-.8,15-.51,22.42-.23,6.76.24,11.44,5.29,11.46,12.09q.15,49.68,0,99.37c0,6.78-4.71,11.78-11.5,12.06C405,406.08,397.52,405.68,390,405.6Z"/><path class="cls-5" d="M292.11,282.13q.24,17.61.48,35.22c-.11,2.15-.37,4.29-.32,6.44.13,5.24,2.32,9.28,7.37,11.33s9.35.72,13.11-3q23.07-23.1,46.18-46.16c1.41-1.41,2.94-2.68,4.42-4l1.82.41c5.93,1.5,12,.32,18,.73q-16,16.15-31.91,32.28c-9.27,9.32-18.53,18.65-27.9,27.86-8.46,8.32-18.53,10.19-29.44,6.08-10.73-4-16.74-13.55-16.77-25.35,0-13.8,0-27.61,0-41.42Z"/><path class="cls-5" d="M383.14,283.05c-6-.41-12,.77-18-.73a129.88,129.88,0,0,1,18.08.1A.92.92,0,0,1,383.14,283.05Z"/></g></g></svg>